<svg width="36" height="36" viewBox="0 0 36 36" fill="none" xmlns="http://www.w3.org/2000/svg">
<path fill-rule="evenodd" clip-rule="evenodd" d="M11.34 3.54902C11.6249 3.20148 12.0506 3 12.5 3H23.5C23.9494 3 24.3751 3.20148 24.66 3.54902C24.9449 3.89655 25.059 4.35351 24.9709 4.79417L23.5 4.5C24.9709 4.79417 24.9706 4.79548 24.9706 4.79548L24.9703 4.7969L24.9697 4.80011L24.9681 4.80791L24.9636 4.82902C24.9601 4.8455 24.9554 4.86676 24.9495 4.8925C24.9377 4.94393 24.9208 5.01341 24.8984 5.09837C24.8535 5.26795 24.7856 5.50125 24.6888 5.77734C24.497 6.32461 24.183 7.06596 23.6927 7.81866C22.8837 9.06086 21.5414 10.3943 19.4867 10.8428V20.7712C19.4867 21.5996 18.8151 22.2712 17.9867 22.2712C17.1583 22.2712 16.4867 21.5996 16.4867 20.7712V10.8413C14.4417 10.3908 13.1065 9.05591 12.3024 7.8163C11.8144 7.06394 11.5015 6.32304 11.3104 5.77622C11.2139 5.50034 11.1462 5.26725 11.1015 5.09786C11.0791 5.01299 11.0623 4.9436 11.0505 4.89225C11.0446 4.86656 11.0399 4.84534 11.0364 4.8289L11.0319 4.80785L11.0303 4.80008L11.0297 4.79689L11.0294 4.79547C11.0294 4.79547 11.0291 4.79417 12.5 4.5L11.0291 4.79417C10.941 4.35351 11.0551 3.89655 11.34 3.54902ZM14.705 6C14.7415 6.06124 14.7796 6.12256 14.8193 6.1837C15.4548 7.16347 16.4132 8 17.9867 8C19.5774 8 20.5421 7.15916 21.1789 6.18134C21.2183 6.12098 21.256 6.06046 21.2923 6H14.705Z" fill="#3F434C"/>
<path d="M23.103 17.5798L19.3813 18.7001C19.3813 18.7001 18.9286 18.8235 18 18.8235C17.0715 18.8235 16.5956 18.6972 16.5956 18.6972L12.899 17.58C12.4719 17.4321 11.9957 17.4915 11.6234 17.7392C11.251 17.9869 11.0292 18.3921 11.0292 18.824V25.8824C11.0292 28.5496 12.3073 30.7627 13.7939 31.7637C15.1966 32.7083 17.2286 33 18 33C18.7704 33 20.8071 32.7094 22.2151 31.766C23.707 30.7664 24.9709 28.5533 24.9709 25.8828V18.824C24.9709 18.3924 24.7494 17.988 24.3775 17.7402C24.0056 17.4925 23.5299 17.4327 23.103 17.5798Z" fill="#8A92A4"/>
</svg>
