<svg width="36" height="36" viewBox="0 0 36 36" fill="none" xmlns="http://www.w3.org/2000/svg">
<path d="M31 32C32.1046 32 33 32.8954 33 34V34C33 35.1046 32.1046 36 31 36H11C9.89543 36 9 35.1046 9 34V34C9 32.8954 9.89543 32 11 32H18H27H31Z" fill="#3F434C"/>
<path d="M24.0588 4.33931C24.0588 2.82808 22.4472 1.86282 21.1149 2.5761L5.29348 11.0463C3.88544 11.8001 3.88544 13.8189 5.29348 14.5727L18.591 21.6918C19.2412 22.0399 19.6471 22.7175 19.6471 23.455V27.5714V30C19.6471 31.1046 18.7516 32 17.6471 32H16.7059H27H26.0588C24.9543 32 24.0588 31.1046 24.0588 30V4.33931Z" fill="#F55252"/>
</svg>
