<svg width="36" height="36" viewBox="0 0 36 36" fill="none" xmlns="http://www.w3.org/2000/svg">
<path d="M5 18H18M18 18H31M18 18V5M18 18V31" stroke="#353F49" stroke-width="4" stroke-linecap="round" stroke-linejoin="round"/>
<circle cx="18" cy="18" r="11" fill="#353F49"/>
<path d="M23 18C23 20.7614 20.7614 23 18 23C15.2386 23 13 20.7614 13 18C13 15.2386 15.2386 13 18 13C20.7614 13 23 15.2386 23 18Z" fill="#353F49"/>
<path d="M23 18C23 20.7614 20.7614 23 18 23C15.2386 23 13 20.7614 13 18C13 15.2386 15.2386 13 18 13C20.7614 13 23 15.2386 23 18Z" fill="#D44444"/>
</svg>
