<svg width="36" height="36" viewBox="0 0 36 36" fill="none" xmlns="http://www.w3.org/2000/svg">
<path d="M10.8591 25.1409C10.1166 25.8834 10.1094 27.1018 10.9598 27.7178C12.6736 28.9594 14.6953 29.7326 16.8238 29.9422C19.5867 30.2143 22.3585 29.52 24.6668 27.9776C26.9752 26.4352 28.6774 24.1401 29.4833 21.4834C30.2892 18.8267 30.149 15.9727 29.0866 13.4078C28.0241 10.8429 26.1052 8.72567 23.6568 7.41695C21.2083 6.10822 18.3818 5.68895 15.6589 6.23058C12.936 6.7722 10.4851 8.2412 8.72388 10.3873C7.36705 12.0406 6.48418 14.0169 6.15028 16.1067C5.98461 17.1435 6.85119 18 7.90119 18V18C8.95118 18 9.78049 17.1376 10.0218 16.1158C10.3072 14.9077 10.8652 13.7718 11.6631 12.7995C12.8663 11.3334 14.5406 10.3299 16.4007 9.95989C18.2608 9.58988 20.1917 9.8763 21.8643 10.7703C23.537 11.6644 24.8478 13.1107 25.5736 14.8629C26.2994 16.6151 26.3952 18.5647 25.8446 20.3796C25.2941 22.1945 24.1313 23.7624 22.5544 24.8161C20.9774 25.8698 19.0839 26.3441 17.1965 26.1582C15.9447 26.0349 14.747 25.6262 13.6909 24.9738C12.7977 24.4218 11.6015 24.3985 10.8591 25.1409V25.1409Z" fill="#C75C87"/>
<path d="M9.28572 22.002C8.88534 22.5106 8.11466 22.5106 7.71429 22.002L3.27912 16.3686C2.76267 15.7126 3.22995 14.75 4.06483 14.75L12.9352 14.75C13.7701 14.75 14.2373 15.7126 13.7209 16.3686L9.28572 22.002Z" fill="#C75C87"/>
</svg>
