<svg width="36" height="36" viewBox="0 0 36 36" fill="none" xmlns="http://www.w3.org/2000/svg">
<g clip-path="url(#clip0_38_2)">
<path d="M19.872 23.188H15.804V20.992C15.804 20.032 15.912 19.324 16.128 18.868C16.368 18.388 16.872 17.764 17.64 16.996L20.268 14.368C20.82 13.768 21.096 13.024 21.096 12.136C21.096 11.248 20.808 10.516 20.232 9.94C19.656 9.34 18.912 9.04 18 9.04C17.088 9.04 16.32 9.328 15.696 9.904C15.096 10.456 14.748 11.2 14.652 12.136H10.296C10.536 10 11.364 8.332 12.78 7.132C14.22 5.908 16.008 5.296 18.144 5.296C20.28 5.296 22.02 5.884 23.364 7.06C24.708 8.212 25.38 9.832 25.38 11.92C25.38 13.36 24.984 14.56 24.192 15.52C23.736 16.096 23.388 16.504 23.148 16.744C22.908 16.984 22.584 17.296 22.176 17.68C21.792 18.04 21.456 18.364 21.168 18.652C20.904 18.916 20.688 19.144 20.52 19.336C20.088 19.864 19.872 20.608 19.872 21.568V23.188ZM17.892 31.18C17.148 31.18 16.5 30.928 15.948 30.424C15.396 29.896 15.12 29.272 15.12 28.552C15.12 27.808 15.384 27.172 15.912 26.644C16.464 26.116 17.112 25.852 17.856 25.852C18.624 25.852 19.284 26.116 19.836 26.644C20.388 27.148 20.664 27.772 20.664 28.516C20.664 29.236 20.388 29.86 19.836 30.388C19.308 30.916 18.66 31.18 17.892 31.18Z" fill="#3F434C"/>
</g>
<defs>
<clipPath id="clip0_38_2">
<rect width="36" height="36" fill="white"/>
</clipPath>
</defs>
</svg>
